name C:\Users\u0150099\Documents\master_thesis\3dpredictsim\Results\debug\Fal_s1_mtj_sc_cspx10_oy_MTPm_k1_d01_MTJm_nl_MG_exp_table_d01_PF_Gefen2002_ls146_PIM_w1e+04_w1e+05_ig21.mot
datacolumns 128
datarows 4
range 1.59125433 1.62307941
endheader
time	pelvis_tilt	pelvis_list	pelvis_rotation	pelvis_tx	pelvis_ty	pelvis_tz	hip_flexion_l	hip_adduction_l	hip_rotation_l	hip_flexion_r	hip_adduction_r	hip_rotation_r	knee_angle_l	knee_angle_r	ankle_angle_l	ankle_angle_r	subtalar_angle_l	subtalar_angle_r	mtj_angle_l	mtj_angle_r	mtp_angle_l	mtp_angle_r	lumbar_extension	lumbar_bending	lumbar_rotation	arm_flex_l	arm_add_l	arm_rot_l	arm_flex_r	arm_add_r	arm_rot_r	elbow_flex_l	elbow_flex_r	pro_sup_l	pro_sup_r	glut_med1_l/activation	glut_med2_l/activation	glut_med3_l/activation	glut_min1_l/activation	glut_min2_l/activation	glut_min3_l/activation	semimem_l/activation	semiten_l/activation	bifemlh_l/activation	bifemsh_l/activation	sar_l/activation	add_long_l/activation	add_brev_l/activation	add_mag1_l/activation	add_mag2_l/activation	add_mag3_l/activation	tfl_l/activation	pect_l/activation	grac_l/activation	glut_max1_l/activation	glut_max2_l/activation	glut_max3_l/activation	iliacus_l/activation	psoas_l/activation	quad_fem_l/activation	gem_l/activation	peri_l/activation	rect_fem_l/activation	vas_med_l/activation	vas_int_l/activation	vas_lat_l/activation	med_gas_l/activation	lat_gas_l/activation	soleus_l/activation	tib_post_l/activation	flex_dig_l/activation	flex_hal_l/activation	tib_ant_l/activation	per_brev_l/activation	per_long_l/activation	per_tert_l/activation	ext_dig_l/activation	ext_hal_l/activation	ercspn_l/activation	intobl_l/activation	extobl_l/activation	glut_med1_r/activation	glut_med2_r/activation	glut_med3_r/activation	glut_min1_r/activation	glut_min2_r/activation	glut_min3_r/activation	semimem_r/activation	semiten_r/activation	bifemlh_r/activation	bifemsh_r/activation	sar_r/activation	add_long_r/activation	add_brev_r/activation	add_mag1_r/activation	add_mag2_r/activation	add_mag3_r/activation	tfl_r/activation	pect_r/activation	grac_r/activation	glut_max1_r/activation	glut_max2_r/activation	glut_max3_r/activation	iliacus_r/activation	psoas_r/activation	quad_fem_r/activation	gem_r/activation	peri_r/activation	rect_fem_r/activation	vas_med_r/activation	vas_int_r/activation	vas_lat_r/activation	med_gas_r/activation	lat_gas_r/activation	soleus_r/activation	tib_post_r/activation	flex_dig_r/activation	flex_hal_r/activation	tib_ant_r/activation	per_brev_r/activation	per_long_r/activation	per_tert_r/activation	ext_dig_r/activation	ext_hal_r/activation	ercspn_r/activation	intobl_r/activation	extobl_r/activation	
          1.59125433	         -2.92988199	          1.13734834	         -3.77592395	          2.11636826	          0.91373901	          0.00397074	         27.40381445	          2.89317562	         -1.35673067	        -15.42479845	          1.95204338	          9.73577497	         -7.72490020	        -11.41023961	         14.27246422	          9.64643162	         -0.42575806	          7.37836585	        -12.54805089	         -5.77215816	        -11.39691061	         16.76051648	         -2.63137558	         -0.31893008	          1.59440471	         -7.34247832	        -13.50110108	          5.08255880	          3.86303103	        -13.71528186	         19.37151743	         25.26860794	         32.01828704	         86.51662706	         86.51662706	          0.05889349	          0.05000069	          0.05884011	          0.05000021	          0.05000030	          0.05000577	          0.29864544	          0.09768008	          0.16336784	          0.06924457	          0.05000058	          0.11910933	          0.16214885	          0.13814641	          0.15053003	          0.15062164	          0.05000164	          0.05010076	          0.18809737	          0.05884072	          0.05884135	          0.11527689	          0.05000014	          0.05000013	          0.19371624	          0.05000087	          0.05000045	          0.05000009	          0.05000105	          0.05000102	          0.05000107	          0.05712369	          0.05000192	          0.05000037	          0.06924358	          0.07982146	          0.09587061	          0.30045134	          0.08732734	          0.17737689	          0.17413252	          0.53055841	          0.06611743	          0.05421006	          0.08347281	          0.09154809	          0.37909209	          0.09590145	          0.05884064	          0.41131118	          0.23952526	          0.10577227	          0.05000224	          0.05000033	          0.05000024	          0.06481386	          0.09589508	          0.05000032	          0.05000023	          0.05000053	          0.05000158	          0.05000142	          0.44882616	          0.05000129	          0.05000049	          0.05000162	          0.05000107	          0.05000087	          0.27300542	          0.76682023	          0.05000010	          0.05000039	          0.05000025	          0.26784092	          0.05003614	          0.05069868	          0.05270054	          0.23930276	          0.31688714	          0.35396425	          0.40157598	          0.15816656	          0.32191795	          0.05000001	          0.05884046	          0.18547052	          0.05000011	          0.05000003	          0.07454038	          0.05000002	          0.05000002	          0.05000010	
          1.60186269	         -2.92701527	          1.21331539	         -3.96732213	          2.13330447	          0.91364809	          0.00364872	         26.96785863	          3.30728987	         -1.33844272	        -15.42336780	          1.72108442	          9.71120437	         -8.17032800	        -13.03620089	         13.83654768	          8.73881973	         -0.42191812	          8.27120035	        -12.89222688	         -7.00064278	        -12.13473955	         20.14515468	         -2.43742899	         -0.48614652	          1.69702743	         -8.06862645	        -13.46054807	          4.80545434	          3.47838652	        -13.65326365	         19.25961306	         24.85296709	         32.98255811	         86.51662706	         86.51662706	          0.05004531	          0.05000307	          0.05000018	          0.05884032	          0.05884023	          0.05000088	          0.25377633	          0.08300450	          0.13882315	          0.05884136	          0.05675074	          0.13728143	          0.13778782	          0.11739159	          0.23145608	          0.15553755	          0.05000018	          0.05007770	          0.19760551	          0.05000060	          0.05000098	          0.13075836	          0.08148577	          0.07038801	          0.52772227	          0.20265970	          0.09768421	          0.05000007	          0.05000012	          0.05000011	          0.05000010	          0.05000002	          0.05000007	          0.05000000	          0.05884031	          0.08148608	          0.08148633	          0.28843167	          0.21895538	          0.17720115	          0.14797070	          0.57601818	          0.05884077	          0.05000004	          0.07093167	          0.07779371	          0.32213665	          0.08149302	          0.05000032	          0.34951501	          0.20353851	          0.08988085	          0.05000239	          0.05000027	          0.05000020	          0.05507616	          0.08148772	          0.07579366	          0.05006746	          0.05000106	          0.05000187	          0.05000080	          0.43203161	          0.05884143	          0.05000105	          0.05000100	          0.05000061	          0.05000060	          0.23198849	          0.66068146	          0.05000011	          0.05000052	          0.05000340	          0.22760021	          0.07906353	          0.09113938	          0.08237511	          0.20334937	          0.26927731	          0.30078385	          0.34124234	          0.13440355	          0.27355238	          0.05000002	          0.05000018	          0.15760501	          0.05000022	          0.05000007	          0.06334135	          0.05000021	          0.07591016	          0.06235319	
          1.61247105	         -2.92110939	          1.31180705	         -4.14027522	          2.15045318	          0.91349951	          0.00331725	         26.54801133	          3.66356286	         -1.30720851	        -15.33577662	          1.46836771	          9.65531310	         -9.09547626	        -14.76032860	         13.01162101	          7.57868376	         -0.43917360	          9.20989458	        -13.18986229	         -8.19020484	        -12.75515124	         23.65504883	         -2.23320537	         -0.67731843	          1.78816630	         -8.78734203	        -13.45057519	          4.74674414	          3.01242208	        -13.59915818	         19.08137631	         24.40115740	         34.02728935	         86.51662706	         86.51662706	          0.05000002	          0.05000005	          0.15747069	          0.05000008	          0.05000007	          0.05000012	          0.21564841	          0.07053377	          0.11796608	          0.05000093	          0.05000070	          0.11665609	          0.36533920	          0.35051122	          0.25555784	          0.20652400	          0.05000052	          0.07228278	          0.16791743	          0.05000178	          0.16278946	          0.21218769	          0.06924327	          0.05981287	          0.51607825	          0.17221176	          0.08300841	          0.05884038	          0.07652856	          0.09848763	          0.05884949	          0.06924365	          0.06989098	          0.06924363	          0.05000002	          0.06924372	          0.06924380	          0.34121721	          0.18882269	          0.15057808	          0.16487865	          0.63604722	          0.05000043	          0.05000000	          0.06027475	          0.06610582	          0.27373817	          0.06924935	          0.05884019	          0.29700316	          0.17295848	          0.07637698	          0.05000134	          0.05000038	          0.05000121	          0.05000005	          0.06924492	          0.14867372	          0.30699319	          0.10376558	          0.05884634	          0.15059126	          0.36712255	          0.05000164	          0.05000102	          0.05883968	          0.05884019	          0.05884045	          0.19713403	          0.65055743	          0.05884027	          0.05883995	          0.05000021	          0.19340507	          0.14742071	          0.14896321	          0.13280075	          0.17279770	          0.22882049	          0.25559339	          0.28997332	          0.11421049	          0.23245328	          0.16590916	          0.05000015	          0.13392608	          0.05000005	          0.19775721	          0.05382489	          0.07661565	          0.06601362	          0.06924374	
          1.62307941	         -2.91235415	          1.45145498	         -4.29038533	          2.16772996	          0.91325961	          0.00300079	         26.06992569	          3.93280095	         -1.22440598	        -15.15749070	          1.18790675	          9.57885102	        -10.06681408	        -16.59388839	         12.05803229	          6.27977438	         -0.40974019	         10.16297067	        -13.50319570	         -9.38787026	        -13.22767558	         27.13033226	         -2.02046834	         -0.91278509	          1.86751159	         -9.47894323	        -13.47855706	          4.89132998	          2.47528285	        -13.55341488	         18.86651236	         23.90284881	         35.15659958	         86.51662706	         86.51662706	          0.39141157	          0.37277495	          0.40799722	          0.37558564	          0.30209297	          0.31527292	          0.18324893	          0.14024186	          0.12097445	          0.06924432	          0.05884013	          0.09912945	          0.31044986	          0.29784978	          0.21716268	          0.24942455	          0.05000031	          0.06142319	          0.14891082	          0.27330112	          0.24754221	          0.24979941	          0.05884016	          0.05082658	          0.43854154	          0.14633839	          0.12815724	          0.05000009	          0.06503077	          0.08369066	          0.05000784	          0.05884033	          0.05939041	          0.05884031	          0.08070375	          0.05884045	          0.05884057	          0.49111724	          0.16045355	          0.14723558	          0.37797035	          0.75395981	          0.44354130	          0.07275658	          0.06924370	          0.05617394	          0.23261156	          0.05884519	          0.05000002	          0.25238103	          0.14697287	          0.06490197	          0.05009650	          0.05000141	          0.05000032	          0.05201894	          0.05884159	          0.18087712	          0.31209318	          0.08817587	          0.05000596	          0.12796630	          0.44283906	          0.05884125	          0.05000086	          0.05000053	          0.05000037	          0.05000042	          0.16751621	          0.63878492	          0.05000005	          0.05000018	          0.05000006	          0.16434747	          0.12527192	          0.12658267	          0.11284848	          0.14683620	          0.19444210	          0.21719246	          0.24640708	          0.09705127	          0.19752899	          0.36242544	          0.30174089	          0.11380472	          0.11103475	          0.33478384	          0.35487356	          0.10022373	          0.05609558	          0.05884041	
